<!-- Generated by IcoMoon.io -->
<svg version="1.1" xmlns="http://www.w3.org/2000/svg" width="32" height="32" viewBox="0 0 32 32">
<title>Movie</title>
<path fill="none" stroke-linejoin="round" stroke-linecap="round" stroke-miterlimit="4" stroke-width="2.6667" d="M1.778 30.222v-28.444"></path>
<path fill="none" stroke-linejoin="round" stroke-linecap="round" stroke-miterlimit="4" stroke-width="2.6667" d="M30.222 1.778v28.444"></path>
<path fill="none" stroke-linejoin="round" stroke-linecap="round" stroke-miterlimit="4" stroke-width="2.6667" d="M9.363 1.778h13.274v11.378h-13.274v-11.378z"></path>
<path fill="none" stroke-linejoin="round" stroke-linecap="round" stroke-miterlimit="4" stroke-width="2.6667" d="M9.363 18.844h13.274v11.378h-13.274v-11.378z"></path>
<path fill="none" stroke-linejoin="round" stroke-linecap="round" stroke-miterlimit="4" stroke-width="2.6667" d="M6.044 4.622c0 0.094-0.028 0.185-0.080 0.263s-0.126 0.139-0.213 0.175c-0.087 0.036-0.182 0.045-0.274 0.027s-0.176-0.063-0.243-0.13c-0.066-0.066-0.111-0.151-0.13-0.243s-0.009-0.187 0.027-0.274c0.036-0.087 0.097-0.161 0.175-0.213s0.17-0.080 0.263-0.080c0.126 0 0.246 0.050 0.335 0.139s0.139 0.21 0.139 0.335z"></path>
<path fill="none" stroke-linejoin="round" stroke-linecap="round" stroke-miterlimit="4" stroke-width="2.6667" d="M6.044 12.207c0 0.094-0.028 0.185-0.080 0.263s-0.126 0.139-0.213 0.175c-0.087 0.036-0.182 0.045-0.274 0.027s-0.176-0.063-0.243-0.13c-0.066-0.066-0.111-0.151-0.13-0.243s-0.009-0.187 0.027-0.274c0.036-0.087 0.097-0.161 0.175-0.213s0.17-0.080 0.263-0.080c0.126 0 0.246 0.050 0.335 0.139s0.139 0.21 0.139 0.335z"></path>
<path fill="none" stroke-linejoin="round" stroke-linecap="round" stroke-miterlimit="4" stroke-width="2.6667" d="M6.044 19.793c0 0.094-0.028 0.185-0.080 0.263s-0.126 0.139-0.213 0.175-0.182 0.045-0.274 0.027c-0.092-0.018-0.176-0.063-0.243-0.13s-0.111-0.151-0.13-0.243c-0.018-0.092-0.009-0.187 0.027-0.274s0.097-0.161 0.175-0.213c0.078-0.052 0.17-0.080 0.263-0.080 0.126 0 0.246 0.050 0.335 0.139s0.139 0.209 0.139 0.335z"></path>
<path fill="none" stroke-linejoin="round" stroke-linecap="round" stroke-miterlimit="4" stroke-width="2.6667" d="M6.044 27.378c0 0.094-0.028 0.185-0.080 0.263s-0.126 0.139-0.213 0.175c-0.087 0.036-0.182 0.045-0.274 0.027s-0.176-0.063-0.243-0.13-0.111-0.151-0.13-0.243c-0.018-0.092-0.009-0.187 0.027-0.274s0.097-0.161 0.175-0.213 0.17-0.080 0.263-0.080c0.126 0 0.246 0.050 0.335 0.139s0.139 0.21 0.139 0.335z"></path>
<path fill="none" stroke-linejoin="round" stroke-linecap="round" stroke-miterlimit="4" stroke-width="2.6667" d="M26.904 4.622c0 0.094-0.028 0.185-0.080 0.263s-0.126 0.139-0.213 0.175c-0.087 0.036-0.182 0.045-0.274 0.027s-0.176-0.063-0.243-0.13-0.111-0.151-0.13-0.243c-0.018-0.092-0.009-0.187 0.027-0.274s0.097-0.161 0.175-0.213c0.078-0.052 0.17-0.080 0.263-0.080 0.126 0 0.246 0.050 0.335 0.139s0.139 0.21 0.139 0.335z"></path>
<path fill="none" stroke-linejoin="round" stroke-linecap="round" stroke-miterlimit="4" stroke-width="2.6667" d="M26.904 12.207c0 0.094-0.028 0.185-0.080 0.263s-0.126 0.139-0.213 0.175c-0.087 0.036-0.182 0.045-0.274 0.027s-0.176-0.063-0.243-0.13-0.111-0.151-0.13-0.243c-0.018-0.092-0.009-0.187 0.027-0.274s0.097-0.161 0.175-0.213c0.078-0.052 0.17-0.080 0.263-0.080 0.126 0 0.246 0.050 0.335 0.139s0.139 0.21 0.139 0.335z"></path>
<path fill="none" stroke-linejoin="round" stroke-linecap="round" stroke-miterlimit="4" stroke-width="2.6667" d="M26.904 19.793c0 0.094-0.028 0.185-0.080 0.263s-0.126 0.139-0.213 0.175-0.182 0.045-0.274 0.027c-0.092-0.018-0.176-0.063-0.243-0.13s-0.111-0.151-0.13-0.243c-0.018-0.092-0.009-0.187 0.027-0.274s0.097-0.161 0.175-0.213c0.078-0.052 0.17-0.080 0.263-0.080 0.126 0 0.246 0.050 0.335 0.139s0.139 0.209 0.139 0.335z"></path>
<path fill="none" stroke-linejoin="round" stroke-linecap="round" stroke-miterlimit="4" stroke-width="2.6667" d="M26.904 27.378c0 0.094-0.028 0.185-0.080 0.263s-0.126 0.139-0.213 0.175c-0.087 0.036-0.182 0.045-0.274 0.027s-0.176-0.063-0.243-0.13-0.111-0.151-0.13-0.243c-0.018-0.092-0.009-0.187 0.027-0.274s0.097-0.161 0.175-0.213c0.078-0.052 0.17-0.080 0.263-0.080 0.126 0 0.246 0.050 0.335 0.139s0.139 0.21 0.139 0.335z"></path>
</svg>
