<!-- Generated by IcoMoon.io -->
<svg version="1.1" xmlns="http://www.w3.org/2000/svg" width="36" height="32" viewBox="0 0 36 32">
<title>Telev</title>
<path fill="none" stroke-linejoin="round" stroke-linecap="round" stroke-miterlimit="4" stroke-width="3" d="M2.769 3.2h30.462v22.338h-30.462v-22.338z"></path>
<path fill="none" stroke-linejoin="round" stroke-linecap="round" stroke-miterlimit="4" stroke-width="3" d="M23.077 3.2v22.338"></path>
<path fill="none" stroke-linejoin="round" stroke-linecap="round" stroke-miterlimit="4" stroke-width="3" d="M27.138 15.385h2.031"></path>
<path fill="none" stroke-linejoin="round" stroke-linecap="round" stroke-miterlimit="4" stroke-width="3" d="M27.138 19.446h2.031"></path>
<path fill="none" stroke-linejoin="round" stroke-linecap="round" stroke-miterlimit="4" stroke-width="3" d="M28.154 9.8c0.1 0 0.199 0.030 0.282 0.086s0.149 0.135 0.187 0.228c0.039 0.093 0.049 0.195 0.029 0.293s-0.068 0.189-0.139 0.26c-0.071 0.071-0.161 0.119-0.26 0.139s-0.2 0.010-0.293-0.029-0.172-0.104-0.228-0.187c-0.056-0.084-0.086-0.182-0.086-0.282 0-0.135 0.053-0.264 0.149-0.359s0.224-0.149 0.359-0.149"></path>
<path fill="none" stroke-linejoin="round" stroke-linecap="round" stroke-miterlimit="4" stroke-width="3" d="M4.8 29.6l4.062-4.062"></path>
<path fill="none" stroke-linejoin="round" stroke-linecap="round" stroke-miterlimit="4" stroke-width="3" d="M31.2 29.6l-4.062-4.062"></path>
</svg>
